<svg width="111" height="157" viewBox="0 0 111 157" fill="none" xmlns="http://www.w3.org/2000/svg">
<rect y="0.120605" width="111" height="156" rx="4" fill="#B5B5C9" fill-opacity="0.4"/>
<rect x="88" y="6.12061" width="17" height="9.91211" rx="4" fill="#3D3BFF"/>
<path d="M93.2842 13.1206L94.6642 9.47861H92.6662V8.83061H95.6662V8.92661L94.1062 13.1206H93.2842ZM95.9929 13.1626C95.8609 13.1626 95.7489 13.1186 95.6569 13.0306C95.5649 12.9386 95.5189 12.8266 95.5189 12.6946C95.5189 12.5626 95.5649 12.4506 95.6569 12.3586C95.7489 12.2666 95.8609 12.2206 95.9929 12.2206C96.1289 12.2206 96.2429 12.2666 96.3349 12.3586C96.4269 12.4506 96.4729 12.5626 96.4729 12.6946C96.4729 12.8266 96.4269 12.9386 96.3349 13.0306C96.2429 13.1186 96.1289 13.1626 95.9929 13.1626ZM98.6301 13.1806C98.1781 13.1806 97.7961 13.0686 97.4841 12.8446C97.1761 12.6206 97.0221 12.3086 97.0221 11.9086C97.0221 11.6446 97.0941 11.4186 97.2381 11.2306C97.3821 11.0426 97.5781 10.9046 97.8261 10.8166C97.4021 10.6486 97.1901 10.3506 97.1901 9.92261C97.1901 9.57461 97.3321 9.29661 97.6161 9.08861C97.9001 8.87661 98.2381 8.77061 98.6301 8.77061C99.0301 8.77061 99.3681 8.87461 99.6441 9.08261C99.9241 9.29061 100.064 9.56661 100.064 9.91061C100.064 10.3266 99.8521 10.6266 99.4281 10.8106C99.6841 10.9026 99.8801 11.0406 100.016 11.2246C100.156 11.4046 100.226 11.6246 100.226 11.8846C100.226 12.2926 100.074 12.6106 99.7701 12.8386C99.4661 13.0666 99.0861 13.1806 98.6301 13.1806ZM98.6301 12.5806C98.8661 12.5806 99.0581 12.5146 99.2061 12.3826C99.3541 12.2506 99.4281 12.0686 99.4281 11.8366C99.4281 11.6086 99.3541 11.4306 99.2061 11.3026C99.0581 11.1706 98.8681 11.1046 98.6361 11.1046C98.4081 11.1046 98.2161 11.1706 98.0601 11.3026C97.9041 11.4306 97.8261 11.6106 97.8261 11.8426C97.8261 12.0746 97.9021 12.2566 98.0541 12.3886C98.2101 12.5166 98.4021 12.5806 98.6301 12.5806ZM98.6421 10.5826C98.8421 10.5826 99.0021 10.5266 99.1221 10.4146C99.2461 10.3026 99.3081 10.1506 99.3081 9.95861C99.3081 9.77861 99.2441 9.63261 99.1161 9.52061C98.9881 9.40461 98.8261 9.34661 98.6301 9.34661C98.4341 9.34661 98.2721 9.40261 98.1441 9.51461C98.0161 9.62661 97.9521 9.77661 97.9521 9.96461C97.9521 10.1526 98.0181 10.3026 98.1501 10.4146C98.2861 10.5266 98.4501 10.5826 98.6421 10.5826Z" fill="white"/>
</svg>
