<svg width="135" height="135" viewBox="0 0 135 135" fill="none" xmlns="http://www.w3.org/2000/svg">
<g filter="url(#filter0_d_44775_193)">
<circle cx="49.5" cy="48.7415" r="16" fill="white"/>
</g>
<path d="M50.7247 45.85C50.4807 45.6059 50.4807 45.2102 50.7247 44.9661C50.9688 44.7221 51.3646 44.7221 51.6086 44.9661L54.942 48.2995C55.186 48.5436 55.186 48.9393 54.942 49.1834L51.6086 52.5167C51.3646 52.7608 50.9688 52.7608 50.7247 52.5167C50.4807 52.2726 50.4807 51.8769 50.7247 51.6328L52.9911 49.3664H44.9167C44.5715 49.3664 44.2917 49.0866 44.2917 48.7414C44.2917 48.3962 44.5715 48.1164 44.9167 48.1164H52.9911L50.7247 45.85Z" fill="#3D3BFF"/>
<defs>
<filter id="filter0_d_44775_193" x="0.60079" y="0.79492" width="134" height="134" filterUnits="userSpaceOnUse" color-interpolation-filters="sRGB">
<feFlood flood-opacity="0" result="BackgroundImageFix"/>
<feColorMatrix in="SourceAlpha" type="matrix" values="0 0 0 0 0 0 0 0 0 0 0 0 0 0 0 0 0 0 127 0" result="hardAlpha"/>
<feOffset dx="18.1008" dy="19.0535"/>
<feGaussianBlur stdDeviation="25.5"/>
<feComposite in2="hardAlpha" operator="out"/>
<feColorMatrix type="matrix" values="0 0 0 0 0 0 0 0 0 0 0 0 0 0 0 0 0 0 0.16 0"/>
<feBlend mode="normal" in2="BackgroundImageFix" result="effect1_dropShadow_44775_193"/>
<feBlend mode="normal" in="SourceGraphic" in2="effect1_dropShadow_44775_193" result="shape"/>
</filter>
</defs>
</svg>
