<svg width="120" height="19" viewBox="0 0 120 19" fill="none" xmlns="http://www.w3.org/2000/svg">
<path fill-rule="evenodd" clip-rule="evenodd" d="M39.3181 0.531327H41.0847V17.9578H39.3181V0.531327ZM35.1966 0.531327V17.9578H33.4299V0.531327H35.1966ZM28.3884 3.14546C27.5751 3.14546 26.9158 2.49511 26.9158 1.69281C26.9158 0.891567 27.574 0.24016 28.3884 0.24016C29.2007 0.24016 29.861 0.890504 29.861 1.69281C29.8599 2.49405 29.2007 3.14546 28.3884 3.14546ZM22.5358 17.9578L16.3525 11.8582L21.9465 6.33979H24.4447L18.8506 11.8582L25.0339 17.9578H22.5358ZM14.5858 0.531327H16.3525V17.9589H14.5858V0.531327ZM11.7882 13.2173C11.7882 16.129 9.4366 18.2415 5.70182 18.2415C3.28557 18.2415 1.40472 17.063 0 15.7156L1.24959 14.3543C2.4184 15.4521 3.79295 16.52 5.67704 16.52C7.77011 16.52 10.0258 15.3628 10.0258 13.2832C10.0258 11.5574 8.63405 10.4321 5.71151 9.5437C2.38177 8.53843 0.690509 7.1761 0.690509 4.61617C0.690509 2.08068 2.86545 0 5.96358 0C8.27749 0 9.72745 0.973391 11.1365 2.21776L9.9095 3.56202C8.67284 2.4813 7.49541 1.74913 6.04976 1.74913C4.25724 1.74913 2.49165 2.88829 2.49165 4.5301C2.49165 6.01887 3.35775 6.96464 6.41495 7.88914C9.21576 8.74139 11.7882 10.0601 11.7882 13.2173ZM29.3073 17.9578H27.5406V6.33979H29.3073V17.9578Z" fill="#272727"/>
<path d="M49.617 18.1596C47.9695 18.1596 46.604 17.6253 45.5205 16.5566C44.4518 15.4732 43.9175 14.0409 43.9175 12.2598V12.0817C43.9175 10.3303 44.4593 8.89801 45.5428 7.78484C46.6411 6.67167 47.9843 6.11508 49.5724 6.11508C50.9082 6.11508 52.0437 6.44903 52.9788 7.11693C53.9138 7.77 54.463 8.79412 54.6262 10.1893H52.8006C52.5335 8.49727 51.4574 7.65126 49.5724 7.65126C48.489 7.65126 47.591 8.05942 46.8786 8.87575C46.181 9.67723 45.8322 10.7459 45.8322 12.0817V12.2598C45.8322 13.655 46.1735 14.731 46.8563 15.488C47.5539 16.245 48.4815 16.6234 49.6392 16.6234C50.5149 16.6234 51.2645 16.3785 51.8878 15.8887C52.5261 15.3841 52.8897 14.6791 52.9788 13.7737H54.693C54.5743 15.0502 54.04 16.104 53.0901 16.9351C52.155 17.7515 50.9973 18.1596 49.617 18.1596Z" fill="#272727"/>
<path d="M57.9727 17.9592V6.31545H59.8206V17.9592H57.9727ZM59.7093 3.53251C59.4718 3.76999 59.1898 3.88873 58.8633 3.88873C58.5367 3.88873 58.2473 3.76999 57.995 3.53251C57.7575 3.29504 57.6388 3.00561 57.6388 2.66424C57.6388 2.32286 57.7575 2.03344 57.995 1.79596C58.2473 1.55849 58.5367 1.43975 58.8633 1.43975C59.1898 1.43975 59.4718 1.55849 59.7093 1.79596C59.9616 2.03344 60.0878 2.32286 60.0878 2.66424C60.0878 3.00561 59.9616 3.29504 59.7093 3.53251Z" fill="#272727"/>
<path d="M64.048 17.9592V6.31545H65.8959V8.16332C66.1779 7.56962 66.6455 7.07983 67.2985 6.69393C67.9516 6.30803 68.7308 6.11508 69.6362 6.11508C70.9126 6.11508 71.9145 6.49356 72.6418 7.25051C73.369 8.00747 73.7327 9.19486 73.7327 10.8127V17.9592H71.8848V10.6791C71.8848 9.65497 71.6621 8.90543 71.2169 8.43048C70.7716 7.95553 70.0815 7.71805 69.1464 7.71805C68.241 7.71805 67.4692 8.00005 66.831 8.56406C66.2076 9.12807 65.8959 9.90729 65.8959 10.9017V17.9592H64.048Z" fill="#272727"/>
<path d="M82.5636 18.1596C80.9013 18.1596 79.5432 17.6253 78.4894 16.5566C77.4504 15.4732 76.931 14.0409 76.931 12.2598V12.0817C76.931 10.3303 77.4356 8.89801 78.4449 7.78484C79.469 6.67167 80.7825 6.11508 82.3855 6.11508C83.8697 6.11508 85.1091 6.59745 86.1035 7.5622C87.1128 8.51211 87.6174 9.95924 87.6174 11.9036V12.5047H78.8456C78.8901 13.8405 79.2241 14.8646 79.8475 15.5771C80.4857 16.2746 81.3985 16.6234 82.5859 16.6234C84.4115 16.6234 85.443 15.9481 85.6805 14.5975H87.5284C87.3354 15.7403 86.7937 16.6234 85.9031 17.2468C85.0126 17.8554 83.8994 18.1596 82.5636 18.1596ZM78.9124 11.013H85.725C85.5618 8.77185 84.4486 7.65126 82.3855 7.65126C81.4504 7.65126 80.6786 7.95552 80.0701 8.56406C79.4616 9.15775 79.0757 9.97408 78.9124 11.013Z" fill="#272727"/>
<path d="M90.8981 17.9592V6.31545H92.746V8.09653C93.028 7.51768 93.4733 7.04272 94.0818 6.67166C94.7052 6.30061 95.4176 6.11508 96.2191 6.11508C97.926 6.11508 99.0614 6.84235 99.6254 8.2969C99.9965 7.58447 100.553 7.04272 101.295 6.67166C102.052 6.30061 102.824 6.11508 103.611 6.11508C104.753 6.11508 105.689 6.49356 106.416 7.25051C107.158 7.99263 107.529 9.15775 107.529 10.7459V17.9592H105.681V10.6123C105.681 8.6828 104.857 7.71805 103.21 7.71805C102.379 7.71805 101.659 7.99263 101.05 8.5418C100.442 9.09096 100.137 9.85534 100.137 10.8349V17.9592H98.2896V10.6123C98.2896 8.6828 97.4659 7.71805 95.8184 7.71805C94.9872 7.71805 94.2673 7.99263 93.6588 8.5418C93.0503 9.09096 92.746 9.85534 92.746 10.8349V17.9592H90.8981Z" fill="#272727"/>
<path d="M114.523 18.1596C113.38 18.1596 112.445 17.8776 111.718 17.3136C111.006 16.7348 110.649 15.8739 110.649 14.731C110.649 13.4843 111.198 12.5715 112.297 11.9926C113.41 11.4138 114.805 11.1244 116.482 11.1244H118.152V10.2783C118.152 9.34328 117.959 8.67538 117.573 8.27463C117.187 7.85905 116.549 7.65126 115.659 7.65126C114.056 7.65126 113.165 8.34885 112.987 9.74402H111.139C111.258 8.49727 111.748 7.58447 112.609 7.00562C113.469 6.41192 114.516 6.11508 115.748 6.11508C118.583 6.11508 120 7.50283 120 10.2783V17.9592H118.152V16.4899C117.262 17.603 116.052 18.1596 114.523 18.1596ZM114.701 16.6902C115.711 16.6902 116.534 16.4453 117.173 15.9555C117.826 15.4509 118.152 14.7607 118.152 13.885V12.4379H116.549C113.848 12.4379 112.497 13.2023 112.497 14.731C112.497 16.0372 113.232 16.6902 114.701 16.6902Z" fill="#272727"/>
</svg>
