<svg width="360" height="271" viewBox="0 0 360 271" fill="none" xmlns="http://www.w3.org/2000/svg">
<path d="M187.875 36.8995H190.469C200.273 36.9019 209.674 40.7998 216.605 47.7361C223.536 54.6723 227.43 64.0788 227.43 73.8869V144.449H150.894V73.8869C150.894 69.0287 151.851 64.2181 153.709 59.7298C155.568 55.2416 158.292 51.1636 161.726 47.7289C165.16 44.2942 169.237 41.5699 173.724 39.7118C178.211 37.8537 183.019 36.8981 187.875 36.8995Z" fill="#3D3BFF"/>
<path d="M203.058 101.973V145.547H169.097V101.973H203.058ZM203.958 101.073H168.197V146.448H203.958V101.073Z" fill="#B5B5C9"/>
<path d="M203.958 101.071H168.197V110.451H203.958V101.071Z" fill="#B5B5C9"/>
<path d="M168.005 78.4114V145.766H147.564V78.4114H168.005ZM168.905 77.511H146.664V146.666H168.905V77.511Z" fill="#B5B5C9"/>
<path d="M231.131 64.7768V145.547H204.149V64.7768H231.131ZM232.031 63.8763H203.249V146.448H232.031V63.8763Z" fill="#B5B5C9"/>
<path d="M214.949 74.8931H215.208C216.185 74.8931 217.123 75.2815 217.814 75.973C218.505 76.6645 218.893 77.6024 218.893 78.5803V86.8913H211.261V78.5803C211.261 78.0959 211.357 77.6162 211.542 77.1687C211.728 76.7212 211.999 76.3147 212.342 75.9722C212.684 75.6298 213.091 75.3583 213.538 75.1731C213.986 74.9879 214.465 74.8928 214.949 74.8931Z" fill="#B5B5C9"/>
<path d="M210.391 81.4369H219.767" stroke="#3D3BFF" stroke-linecap="round" stroke-linejoin="round"/>
<path d="M214.949 96.4177H215.208C216.185 96.4177 217.123 96.8062 217.814 97.4977C218.505 98.1892 218.893 99.1271 218.893 100.105V108.416H211.261V100.105C211.261 99.6206 211.357 99.1409 211.542 98.6934C211.728 98.2459 211.999 97.8393 212.342 97.4969C212.684 97.1545 213.091 96.8829 213.538 96.6978C213.986 96.5126 214.465 96.4174 214.949 96.4177Z" fill="#2A28C2"/>
<path d="M210.391 102.962H219.767" stroke="#3D3BFF" stroke-linecap="round" stroke-linejoin="round"/>
<path d="M214.949 117.943H215.208C216.185 117.943 217.123 118.331 217.814 119.022C218.505 119.714 218.893 120.652 218.893 121.63V129.941H211.261V121.63C211.261 120.652 211.65 119.714 212.341 119.022C213.032 118.331 213.97 117.943 214.947 117.943H214.949Z" fill="#2A28C2"/>
<path d="M210.391 124.486H219.767" stroke="#3D3BFF" stroke-linecap="round" stroke-linejoin="round"/>
<path d="M214.949 139.467H215.208C216.185 139.467 217.123 139.856 217.814 140.547C218.505 141.239 218.893 142.177 218.893 143.155V150.79H211.261V143.155C211.261 142.67 211.357 142.19 211.542 141.743C211.728 141.295 211.999 140.889 212.342 140.546C212.684 140.204 213.091 139.932 213.538 139.747C213.986 139.562 214.465 139.467 214.949 139.467Z" fill="#272727"/>
<path d="M232.031 63.8763H203.249V67.4758H232.031V63.8763Z" fill="#B5B5C9"/>
<path d="M168.905 75.7665H146.664V79.3659H168.905V75.7665Z" fill="#B5B5C9"/>
<path d="M182.261 118.96H174.629V128.777H182.261V118.96Z" fill="#2A28C2"/>
<path d="M173.756 123.323H183.134" stroke="#3D3BFF" stroke-linecap="round" stroke-linejoin="round"/>
<path d="M178.445 129.214V123.323" stroke="#3D3BFF" stroke-linecap="round" stroke-linejoin="round"/>
<path d="M182.261 136.689H174.629V146.506H182.261V136.689Z" fill="#B5B5C9"/>
<path d="M173.756 141.052H183.134" stroke="#3D3BFF" stroke-linecap="round" stroke-linejoin="round"/>
<path d="M178.445 146.943V141.052" stroke="#3D3BFF" stroke-linecap="round" stroke-linejoin="round"/>
<path d="M196.652 118.96H189.02V128.777H196.652V118.96Z" fill="#272727"/>
<path d="M188.149 123.323H197.525" stroke="#3D3BFF" stroke-linecap="round" stroke-linejoin="round"/>
<path d="M192.836 129.214V123.323" stroke="#3D3BFF" stroke-linecap="round" stroke-linejoin="round"/>
<path d="M196.652 136.689H189.02V146.506H196.652V136.689Z" fill="#2A28C2"/>
<path d="M188.149 141.052H197.525" stroke="#3D3BFF" stroke-linecap="round" stroke-linejoin="round"/>
<path d="M192.836 146.943V141.052" stroke="#3D3BFF" stroke-linecap="round" stroke-linejoin="round"/>
<path d="M173.266 63.5499C176.397 63.5499 178.936 61.0101 178.936 57.8772C178.936 54.7442 176.397 52.2045 173.266 52.2045C170.134 52.2045 167.596 54.7442 167.596 57.8772C167.596 61.0101 170.134 63.5499 173.266 63.5499Z" fill="#2A28C2"/>
<path d="M237.242 144.485H141.082V151.029H237.242V144.485Z" fill="#2A28C2"/>
<path d="M190.681 30.3894H187.65C163.742 30.3894 144.36 49.7801 144.36 73.7V151.029H233.98V73.7C233.973 49.7801 214.589 30.3894 190.681 30.3894ZM185.893 144.485H150.894V89.946H185.893V144.485ZM185.893 83.4021H150.894V73.9229C150.894 64.4546 154.524 55.3469 161.035 48.4756C167.546 41.6044 176.443 37.4926 185.893 36.9873V83.4021ZM227.43 144.485H192.434V89.946H227.43V144.485ZM227.43 83.4021H192.434V36.9873C201.884 37.4926 210.78 41.6044 217.291 48.4758C223.801 55.3472 227.43 64.4548 227.43 73.9229V83.4021Z" fill="#2A28C2"/>
<path d="M70.5645 237.2C75.381 237.2 79.2855 233.293 79.2855 228.475C79.2855 223.656 75.381 219.749 70.5645 219.749C65.748 219.749 61.8435 223.656 61.8435 228.475C61.8435 233.293 65.748 237.2 70.5645 237.2Z" fill="#3D3BFF"/>
<path d="M265.061 157.35C265.063 157.591 265.014 157.829 264.917 158.05C264.242 159.587 261.358 159.815 258.489 158.556C256.086 157.505 254.453 155.745 254.383 154.297V173.494H265.068V157.35H265.061Z" fill="#3D3BFF"/>
<path d="M260.953 152.994C258.084 151.736 255.204 151.963 254.524 153.5C254.415 153.753 254.367 154.027 254.383 154.302C254.452 155.749 256.086 157.51 258.489 158.561C261.358 159.819 264.238 159.592 264.917 158.054C265.014 157.834 265.063 157.595 265.061 157.354C265.068 155.889 263.414 154.07 260.953 152.994Z" fill="#F1AFAB"/>
<path d="M273.253 163.682C273.184 165.129 271.55 166.89 269.147 167.943C266.276 169.199 263.399 168.974 262.717 167.435C262.621 167.214 262.572 166.977 262.573 166.737V173.49H273.256V163.682H273.253Z" fill="#3D3BFF"/>
<path d="M273.112 162.881C272.437 161.343 269.552 161.116 266.681 162.374C264.222 163.452 262.568 165.269 262.573 166.737C262.572 166.977 262.621 167.214 262.717 167.435C263.392 168.974 266.276 169.199 269.147 167.943C271.55 166.89 273.184 165.129 273.254 163.682C273.27 163.407 273.221 163.133 273.112 162.881Z" fill="#F1AFAB"/>
<path d="M262.885 173.499V166.955" stroke="#F1AFAB" stroke-miterlimit="10" stroke-linecap="round"/>
<path d="M259.724 151.573V155.283" stroke="#272727" stroke-linecap="round" stroke-linejoin="round"/>
<path d="M267.914 160.956V164.882" stroke="#272727" stroke-linecap="round" stroke-linejoin="round"/>
<path d="M213.975 237.263C213.702 237.263 213.433 237.198 213.19 237.074C212.947 236.95 212.737 236.77 212.577 236.549C212.418 236.328 212.312 236.072 212.271 235.803C212.229 235.533 212.252 235.257 212.337 234.998L217.737 218.534C217.851 218.189 218.071 217.888 218.365 217.675C218.66 217.462 219.014 217.348 219.377 217.348H223.162C223.462 217.347 223.758 217.426 224.019 217.575C224.28 217.725 224.497 217.94 224.649 218.199C224.802 218.459 224.883 218.753 224.886 219.054C224.889 219.355 224.814 219.651 224.667 219.914L215.474 236.378C215.325 236.645 215.108 236.868 214.844 237.024C214.581 237.179 214.281 237.262 213.975 237.263Z" fill="#272727"/>
<path d="M286.317 237.263C286.59 237.263 286.859 237.198 287.102 237.074C287.345 236.95 287.555 236.77 287.715 236.549C287.874 236.328 287.98 236.072 288.021 235.803C288.063 235.533 288.041 235.257 287.955 234.998L282.555 218.534C282.441 218.189 282.222 217.889 281.928 217.676C281.634 217.463 281.28 217.348 280.917 217.348H277.13C276.83 217.348 276.535 217.427 276.274 217.576C276.014 217.726 275.797 217.941 275.645 218.2C275.493 218.459 275.411 218.754 275.407 219.054C275.404 219.355 275.479 219.651 275.625 219.914L284.819 236.378C284.968 236.645 285.185 236.868 285.448 237.023C285.711 237.179 286.011 237.261 286.317 237.263Z" fill="#272727"/>
<path d="M294.667 173.499H205.92V224.328H294.667V173.499Z" fill="#F1AFAB"/>
<path d="M288.124 180.043H212.461V217.784H288.124V180.043Z" fill="#3D3BFF"/>
<path d="M250.211 179.39V218.439" stroke="#F1AFAB" stroke-miterlimit="10"/>
<path d="M259.128 201.201C260.391 201.201 261.414 200.177 261.414 198.914C261.414 197.65 260.391 196.626 259.128 196.626C257.866 196.626 256.842 197.65 256.842 198.914C256.842 200.177 257.866 201.201 259.128 201.201Z" fill="#272727"/>
<path d="M241.456 201.201C242.719 201.201 243.742 200.177 243.742 198.914C243.742 197.65 242.719 196.626 241.456 196.626C240.194 196.626 239.17 197.65 239.17 198.914C239.17 200.177 240.194 201.201 241.456 201.201Z" fill="#272727"/>
<path d="M96.9255 216.103V219.81H128.979V216.103H96.9255Z" fill="#F1AFAB"/>
<path d="M134.26 235.345L126.32 187.678H131.175C131.695 187.678 132.194 187.472 132.562 187.104C132.93 186.735 133.137 186.236 133.137 185.716C133.137 185.195 132.93 184.696 132.562 184.328C132.194 183.959 131.695 183.753 131.175 183.753H94.7678C94.2475 183.753 93.7484 183.959 93.3805 184.328C93.0125 184.696 92.8058 185.195 92.8058 185.716C92.8058 186.236 93.0125 186.735 93.3805 187.104C93.7484 187.472 94.2475 187.678 94.7678 187.678H99.5851L91.6448 235.345C91.6056 235.581 91.6183 235.823 91.6819 236.053C91.7454 236.284 91.8585 236.498 92.013 236.68C92.1676 236.863 92.3601 237.009 92.577 237.11C92.794 237.211 93.0302 237.263 93.2693 237.263C93.6452 237.263 94.0099 237.135 94.3026 236.899C94.5953 236.663 94.7984 236.334 94.8781 235.966L105.399 187.678H120.506L131.024 235.966C131.105 236.334 131.309 236.663 131.602 236.898C131.895 237.134 132.259 237.263 132.635 237.263C132.874 237.263 133.111 237.211 133.328 237.11C133.545 237.009 133.737 236.863 133.892 236.68C134.046 236.498 134.159 236.284 134.223 236.053C134.286 235.823 134.299 235.581 134.26 235.345Z" fill="#3D3BFF"/>
<path d="M131.175 187.678C131.695 187.678 132.194 187.472 132.562 187.104C132.93 186.735 133.137 186.236 133.137 185.716C133.137 185.195 132.93 184.696 132.562 184.328C132.194 183.959 131.695 183.753 131.175 183.753H94.7677C94.2473 183.753 93.7483 183.959 93.3803 184.328C93.0124 184.696 92.8057 185.195 92.8057 185.716C92.8057 186.236 93.0124 186.735 93.3803 187.104C93.7483 187.472 94.2473 187.678 94.7677 187.678H99.5849V187.739H105.394L105.408 187.678H120.514L120.528 187.739H126.337V187.678H131.175Z" fill="#F1AFAB"/>
<path d="M133.333 216.04H156.508C156.796 211.117 157.824 204.586 158.677 195.764C159.435 187.942 160.088 181.375 160.045 175.955C159.973 166.919 136.87 177.855 136.87 177.855C136.87 179.829 137.268 181.724 137.279 183.561C137.306 188.333 134.89 192.394 133.164 198.15C130.547 206.878 132.728 216.04 132.728 216.04H133.333Z" fill="#3D3BFF"/>
<path d="M157.743 234.8H137.455C137.173 234.89 136.933 235.077 136.777 235.329C136.622 235.58 136.561 235.879 136.606 236.171C136.651 236.463 136.799 236.73 137.023 236.923C137.247 237.115 137.533 237.222 137.828 237.222L167.683 237.263C167.947 234.359 166.297 232.173 161.644 228.934C158.989 231.237 157.743 234.8 157.743 234.8Z" fill="#838391"/>
<path d="M160.598 228.229C159.635 227.606 158.802 226.8 158.148 225.857C156.573 223.545 156.24 220.432 156.499 216.04H136.415C136.454 219.323 136.691 222.602 137.124 225.857C137.637 229.542 138.33 232.076 138.886 234.742H137.831C137.703 234.741 137.576 234.761 137.455 234.8H157.743C157.743 234.8 158.99 231.237 161.645 228.947C161.312 228.712 160.963 228.472 160.598 228.229Z" fill="#F1AFAB"/>
<path d="M156.742 212.096C155.5 209.622 154.653 206.969 154.233 204.233C152.764 194.02 153.635 188.784 149.492 184.198H137.372" stroke="#272727" stroke-linecap="round" stroke-linejoin="round"/>
<path d="M164.299 216.911L164.322 216.965L182.214 208.582C180.821 204.413 179.365 198.866 176.974 191.606C174.733 184.813 173.25 179.737 171.846 175.808C169.882 177.223 167.461 177.853 165.057 177.574C162.654 177.294 160.441 176.126 158.854 174.298C157.267 172.471 156.42 170.116 156.48 167.695C156.54 165.275 157.501 162.964 159.176 161.217C149.625 156.9 115.702 154.083 115.702 154.083L96.5114 151.247C95.4989 152.922 94.6372 155.576 94.1692 158.676H100.874V165.85C100.871 167.3 100.292 168.69 99.2663 169.715C98.2402 170.74 96.8499 171.316 95.3999 171.318H95.0174C94.9274 171.318 94.8374 171.318 94.7497 171.318C96.5812 178.071 101.293 183.759 110.909 183.759H149.722C153.864 188.34 152.993 193.576 154.462 203.794C155.664 212.152 161.359 218.313 161.359 218.313L164.299 216.911Z" fill="#3D3BFF"/>
<path d="M191.556 226.512L173.736 234.597C173.434 234.808 173.223 235.125 173.144 235.485C173.065 235.845 173.123 236.221 173.309 236.539C173.494 236.857 173.792 237.094 174.144 237.203C174.496 237.312 174.875 237.284 175.208 237.125L202.248 224.519C201.188 221.593 198.464 220.467 192.008 219.342L191.732 219.29C191.197 221.662 191.137 224.117 191.556 226.512Z" fill="#838391"/>
<path d="M191.732 219.281C189.873 218.925 188.415 218.306 187.211 217.37C184.993 215.641 183.634 212.827 182.214 208.591L164.322 216.974C165.839 220.461 167.967 224.128 169.994 227.329C171.765 230.116 173.455 232.544 174.591 234.172L173.945 234.485C173.872 234.521 173.802 234.563 173.736 234.611L191.556 226.525C191.134 224.123 191.194 221.66 191.732 219.281Z" fill="#F1AFAB"/>
<path d="M166.181 177.643C168.215 177.644 170.198 177.002 171.846 175.808C169.054 167.957 166.633 164.686 159.311 161.278L159.176 161.217C157.86 162.59 156.976 164.32 156.635 166.191C156.293 168.063 156.509 169.993 157.255 171.743C158.002 173.493 159.246 174.985 160.832 176.033C162.419 177.081 164.279 177.639 166.181 177.639V177.643Z" fill="#838391"/>
<path d="M95.3999 171.318C96.8526 171.318 98.2458 170.74 99.2732 169.713C100.301 168.686 100.878 167.292 100.879 165.839V158.664H94.1736C93.5819 162.557 93.6156 167.135 94.7496 171.311C94.8374 171.311 94.9274 171.311 95.0174 171.311L95.3999 171.318Z" fill="#838391"/>
<path d="M149.391 184.297H155.932" stroke="#272727" stroke-linecap="round" stroke-linejoin="round"/>
<path d="M177.525 114.924C177.525 114.924 165.751 101.399 151.839 96.4944" stroke="#272727" stroke-linecap="round" stroke-linejoin="round"/>
<path d="M140.594 101.778C140.166 100.744 141.593 99.1236 143.969 97.7549C140.751 96.9536 138.465 95.4611 138.695 94.2073C138.924 92.9534 141.588 92.3636 144.882 92.7508C143.15 90.6348 142.387 88.6133 143.152 87.7985C144.126 86.7562 147.218 88.0708 150.055 90.7249C152.53 93.0435 153.992 95.6232 153.682 96.9356C153.509 98.2727 151.229 100.168 148.097 101.465C144.495 102.959 141.14 103.099 140.594 101.778Z" fill="#F1AFAB"/>
<path d="M153.799 101.136C156.068 101.136 157.907 99.2958 157.907 97.0256C157.907 94.7555 156.068 92.9152 153.799 92.9152C151.53 92.9152 149.69 94.7555 149.69 97.0256C149.69 99.2958 151.53 101.136 153.799 101.136Z" fill="#272727"/>
<path d="M162.455 102.32C163.584 101.9 163.071 97.712 161.309 92.965C159.547 88.218 157.204 84.7097 156.075 85.129C154.947 85.5484 155.46 89.7365 157.221 94.4835C158.983 99.2306 161.326 102.739 162.455 102.32Z" fill="#272727"/>
<path d="M162.254 103.144C162.254 103.144 164 107.943 163.127 112.961" stroke="#272727" stroke-linecap="round" stroke-linejoin="round"/>
<path d="M130.415 84.028C126.693 88.2172 122.738 89.1424 122.738 89.1424C120.179 86.3511 115.538 86.3511 114.829 90.3062C114.057 94.689 119.475 95.8956 119.475 95.8956C119.475 95.8956 120.841 101.55 118.746 104.344C116.897 106.82 114.521 107.227 109.652 107.772C115.997 118.499 122.477 117.652 124.634 117.652C129.809 117.652 131.267 111.644 131.675 108.547C130.496 108.136 129.294 107.796 128.075 107.531L127.377 103.344C127.377 103.344 130.633 104.506 133.425 102.878C136.217 101.251 136.915 98.2232 135.983 93.5702C135.432 90.8127 135.452 87.4023 134.98 84.3544C133.137 84.6673 130.415 84.028 130.415 84.028Z" fill="#F1AFAB"/>
<path d="M169.124 107.398C168.136 103.443 160.403 101.298 160.403 101.298C160.403 101.298 160.866 92.4199 158.875 92.1362C157.349 91.9111 155.822 95.6277 154.514 102.827C153.052 110.872 153.86 125.731 153.86 125.731C153.86 125.731 152.242 124.261 149.947 122.215C149.718 122.679 149.366 123.071 148.929 123.349C148.493 123.627 147.989 123.779 147.472 123.791C147.798 124.205 148.003 124.701 148.062 125.225C148.122 125.749 148.034 126.279 147.809 126.755C147.584 127.232 147.23 127.636 146.788 127.922C146.345 128.209 145.832 128.366 145.305 128.376C145.631 128.79 145.836 129.287 145.895 129.81C145.955 130.334 145.867 130.864 145.642 131.341C145.417 131.817 145.063 132.221 144.621 132.508C144.179 132.794 143.665 132.951 143.138 132.962C143.481 133.396 143.689 133.921 143.736 134.473C143.783 135.024 143.668 135.577 143.405 136.063C143.142 136.55 142.742 136.949 142.255 137.21C141.767 137.472 141.214 137.585 140.663 137.536C145.44 140.647 151.934 144.276 156.26 144.276C178.936 144.267 169.778 110.016 169.124 107.398Z" fill="#F1AFAB"/>
<path d="M143.467 135.917C143.692 135.441 143.779 134.911 143.72 134.387C143.661 133.864 143.457 133.367 143.131 132.953C143.658 132.942 144.172 132.785 144.614 132.499C145.056 132.212 145.41 131.808 145.635 131.332C145.86 130.855 145.948 130.325 145.888 129.801C145.829 129.278 145.625 128.781 145.298 128.367C145.825 128.357 146.338 128.2 146.781 127.913C147.223 127.627 147.577 127.223 147.802 126.746C148.027 126.27 148.115 125.74 148.055 125.216C147.996 124.692 147.791 124.196 147.465 123.782C147.982 123.77 148.486 123.618 148.922 123.34C149.359 123.062 149.711 122.67 149.94 122.206C145.984 118.681 140.02 113.454 136.845 111.106C135.308 109.969 133.351 109.127 131.67 108.547C131.274 111.653 129.825 117.652 124.65 117.652C122.501 117.652 116.012 118.499 109.667 107.772L107.629 107.997C100.609 108.778 97.4137 112.558 95.5327 117.074C94.3694 119.867 93.4379 124.986 93.4379 124.986C92.7162 129.679 92.3447 134.42 92.3264 139.168L101.455 147.621L125.962 148.226C127.924 145.331 131.524 139.985 132.712 137.934C134.237 135.316 134.455 133.135 134.455 133.135C134.455 133.135 137.074 135.183 140.663 137.522C141.238 137.573 141.815 137.446 142.316 137.159C142.817 136.872 143.219 136.439 143.467 135.917Z" fill="#3D3BFF"/>
<path d="M132.975 78.9068C130.185 75.4176 122.508 73.09 116.46 77.5111C110.412 81.9322 110.878 89.1469 111.109 91.9405C111.109 91.9405 104.598 89.8447 99.945 94.7318C98.5984 96.129 97.6177 97.8374 97.0901 99.7052C96.5625 101.573 96.5044 103.542 96.921 105.438C96.921 105.438 88.353 105.197 86.6857 113.119C85.7385 117.621 87.507 120.617 89.469 122.472C90.6197 123.552 91.964 124.405 93.4312 124.986C93.4312 124.986 94.3627 119.867 95.526 117.074C97.407 112.558 100.602 108.778 107.622 107.997L109.66 107.772C114.529 107.227 116.905 106.813 118.755 104.344C120.847 101.55 119.475 95.8956 119.475 95.8956C119.475 95.8956 114.05 94.689 114.822 90.3107C115.522 86.3556 120.172 86.3556 122.731 89.1469C122.731 89.1469 126.686 88.2172 130.408 84.028C130.408 84.028 133.13 84.6673 134.986 84.3544C134.669 82.2564 134.111 80.3317 132.975 78.9068Z" fill="#272727"/>
<path d="M169.607 110.507C168.948 110.203 168.554 109.438 168.667 107.975C168.667 107.975 167.303 109.686 165.852 108.925C164.401 108.164 164.981 106.525 164.981 106.525C164.981 106.525 163.672 107.399 162.583 106.3C161.595 105.312 162.358 103.682 162.358 103.682C162.358 103.682 160.909 104.274 160.396 103.245C159.75 101.958 160.535 100.609 161.386 99.576" stroke="#272727" stroke-linecap="round" stroke-linejoin="round"/>
<path d="M96.5071 105.627C96.7536 106.793 97.198 107.909 97.8211 108.925" stroke="#272727" stroke-miterlimit="10" stroke-linecap="round"/>
<path d="M153.423 126.013L153.97 132.813" stroke="#272727" stroke-linecap="round" stroke-linejoin="round"/>
<path d="M133.69 125.61C135.115 128.176 135.097 131.255 134.912 133.081" stroke="#272727" stroke-linecap="round" stroke-linejoin="round"/>
<path d="M120.825 132.813L113.848 133.031" stroke="#272727" stroke-linecap="round" stroke-linejoin="round"/>
<path d="M127.258 103.774C126.283 103.391 125.331 102.95 124.409 102.453" stroke="#272727" stroke-linecap="round" stroke-linejoin="round"/>
<path d="M129.002 110.235L128.621 107.824" stroke="#272727" stroke-linecap="round" stroke-linejoin="round"/>
<path d="M110.639 92.0282L111.123 96.0531" stroke="#272727" stroke-miterlimit="10" stroke-linecap="round"/>
<path d="M133.69 96.8184C133.198 97.1381 131.564 97.2439 130.781 95.819" stroke="#272727" stroke-linecap="round" stroke-linejoin="round"/>
<path d="M120.607 92.2353L118.427 91.1458" stroke="#272727" stroke-linecap="round" stroke-linejoin="round"/>
<path d="M130.673 91.2695C130.324 91.7445 128.68 92.6652 127.442 91.6139" stroke="#272727" stroke-linecap="round" stroke-linejoin="round"/>
<path d="M135.972 90.5831C135.712 90.6384 135.443 90.6419 135.181 90.5932C134.919 90.5446 134.67 90.4447 134.447 90.2994" stroke="#272727" stroke-linecap="round" stroke-linejoin="round"/>
<path d="M133.022 91.3934C133.272 91.9585 133.513 92.582 133.461 92.8206C133.384 93.1108 133.211 93.3664 132.97 93.5455" stroke="#272727" stroke-linecap="round" stroke-linejoin="round"/>
<path d="M119.412 94.8713L116.435 97.6807C116.274 97.8327 116.155 98.0235 116.088 98.2349C116.022 98.4463 116.01 98.6712 116.056 98.8882C116.101 99.1052 116.201 99.3069 116.346 99.4743C116.491 99.6416 116.677 99.7689 116.885 99.8439L120.404 101.093C120.613 101.167 120.838 101.186 121.057 101.149C121.275 101.111 121.48 101.018 121.653 100.878C121.825 100.738 121.959 100.556 122.041 100.35C122.123 100.144 122.15 99.9199 122.121 99.6999L121.579 95.6479C121.547 95.4124 121.451 95.1901 121.302 95.0054C121.152 94.8206 120.955 94.6805 120.731 94.6004C120.508 94.5202 120.266 94.5031 120.034 94.5509C119.801 94.5987 119.586 94.7095 119.412 94.8713Z" fill="#F1AFAB"/>
<path d="M162.146 95.6187C162.146 95.6187 163.672 94.7453 164.981 95.182C167.006 95.8573 166.709 97.7437 166.709 97.7437C166.709 97.7437 169.549 96.7195 170.1 99.7224C170.1 99.7224 172.661 100.296 172.085 102.858C172.085 102.858 174.157 102.968 173.745 105.685C173.333 108.403 171.522 110.66 170.433 110.66C169.308 110.66 168.514 109.969 168.667 107.959C168.667 107.959 167.303 109.67 165.852 108.909C164.401 108.148 164.981 106.509 164.981 106.509C164.981 106.509 163.672 107.383 162.583 106.284C161.595 105.296 162.358 103.666 162.358 103.666C162.358 103.666 160.909 104.258 160.396 103.23C159.305 101.048 162.306 98.7026 162.794 97.9958L162.146 95.6187Z" fill="#F1AFAB"/>
<path d="M161.498 104.461C162.997 103.086 165.548 100.49 166.759 97.7662" stroke="#272727" stroke-linecap="round" stroke-linejoin="round"/>
<path d="M164.25 107.601C166.74 105.482 168.773 102.878 170.224 99.9475" stroke="#272727" stroke-linecap="round" stroke-linejoin="round"/>
<path d="M168.104 109.217C168.779 108.393 171.139 105.433 172.309 103.09" stroke="#272727" stroke-linecap="round" stroke-linejoin="round"/>
<path d="M167.681 159.319H129.917L138.501 132.187C138.755 131.389 139.256 130.691 139.933 130.197C140.609 129.702 141.425 129.436 142.263 129.437H174.175C174.795 129.436 175.406 129.582 175.959 129.863C176.512 130.143 176.992 130.55 177.358 131.05C177.724 131.551 177.968 132.131 178.068 132.743C178.169 133.355 178.124 133.982 177.937 134.573L170.838 157.01C170.625 157.68 170.204 158.265 169.636 158.68C169.069 159.095 168.384 159.319 167.681 159.319Z" fill="#272727"/>
<path d="M108 156.265C107.889 156.616 107.862 156.989 107.921 157.353C107.981 157.717 108.125 158.061 108.343 158.359C108.56 158.657 108.845 158.899 109.174 159.066C109.502 159.232 109.866 159.319 110.234 159.319H167.681C168.384 159.318 169.068 159.093 169.634 158.677C170.2 158.261 170.619 157.675 170.831 157.005L171.056 156.265H108Z" fill="#272727"/>
<path d="M161.897 142.043C161.019 140.84 157.03 144.014 156.737 144.278C156.584 144.014 154.51 140.84 152.987 142.043C151.666 143.085 154.562 147.738 155.342 148.924C155.375 148.96 155.414 148.989 155.458 149.009C155.503 149.029 155.55 149.039 155.599 149.039C155.647 149.039 155.695 149.029 155.739 149.009C155.783 148.989 155.823 148.96 155.855 148.924C157.275 147.726 162.659 143.074 161.897 142.043Z" fill="#3D3BFF"/>
<path d="M158.251 141.193C158.568 140.174 158.555 139.265 158.222 139.161C157.888 139.057 157.361 139.798 157.044 140.817C156.727 141.835 156.74 142.745 157.074 142.849C157.407 142.953 157.934 142.211 158.251 141.193Z" fill="#3D3BFF"/>
<path d="M86.3618 134.72C86.8519 134.909 87.3849 134.958 87.9014 134.862C88.4178 134.765 88.8974 134.528 89.2868 134.175C89.3329 134.701 89.5251 135.203 89.8416 135.625C90.158 136.047 90.5862 136.372 91.0776 136.564C91.5691 136.755 92.1043 136.806 92.6228 136.709C93.1413 136.612 93.6224 136.372 94.0118 136.016C94.0591 136.541 94.252 137.043 94.5688 137.464C94.8855 137.885 95.3135 138.21 95.8046 138.401C96.2956 138.592 96.8303 138.642 97.3483 138.546C97.8664 138.45 98.3472 138.21 98.7368 137.855C98.7728 138.27 98.8999 138.671 99.1088 139.031C99.3178 139.391 99.6035 139.7 99.9457 139.936C100.288 140.173 100.678 140.331 101.088 140.399C101.498 140.468 101.919 140.444 102.319 140.332L105.721 131.19C107.031 127.681 107.652 123.952 107.55 120.207L107.206 108.051C107.206 108.051 99.3555 108.704 94.7768 114.377C92.4278 117.287 87.8175 124.977 84.8633 133.338C85.1737 133.969 85.7079 134.461 86.3618 134.72Z" fill="#3D3BFF"/>
<path d="M100.535 140.242C100.042 140.052 99.612 139.727 99.2939 139.306C98.9758 138.884 98.782 138.382 98.7346 137.855C98.345 138.21 97.8641 138.45 97.3461 138.546C96.828 138.642 96.2934 138.592 95.8023 138.401C95.3113 138.21 94.8833 137.885 94.5665 137.464C94.2498 137.043 94.0569 136.541 94.0096 136.016C93.6202 136.372 93.139 136.612 92.6206 136.709C92.1021 136.806 91.5669 136.755 91.0754 136.564C90.5839 136.372 90.1558 136.047 89.8393 135.625C89.5229 135.203 89.3307 134.701 89.2846 134.175C88.9607 134.47 88.5727 134.686 88.1513 134.806C87.7298 134.925 87.2864 134.945 86.8558 134.864C86.4253 134.783 86.0194 134.604 85.6702 134.339C85.3209 134.075 85.0377 133.732 84.8431 133.34C82.2826 140.586 80.9641 148.339 83.4436 153.919C88.7806 165.938 104.798 161.708 108.578 160.596C112.358 159.484 119.702 155.7 124.596 156.368C129.49 157.037 135.05 159.484 135.941 156.368C135.941 156.368 138.935 156.292 137.993 153.442C137.993 153.442 139.498 153.255 139.721 152.143C140.171 149.917 134.827 147.916 134.827 147.916C134.827 147.916 139.055 148.591 139.943 147.69C141.068 146.565 139.975 144.748 133.07 143.073C125.485 141.237 115.475 142.349 100.571 145.018L102.314 140.329C101.727 140.494 101.103 140.464 100.535 140.242Z" fill="#F1AFAB"/>
<path d="M105.779 129.977L100.8 144.519" stroke="#272727" stroke-linecap="round" stroke-linejoin="round"/>
<path d="M136.17 148.075C133.753 147.157 129.73 145.748 126.607 145.239" stroke="#272727" stroke-linecap="round" stroke-linejoin="round"/>
<path d="M138.056 153.325C134.951 151.927 129.02 149.39 125.829 148.913" stroke="#272727" stroke-linecap="round" stroke-linejoin="round"/>
<path d="M100.606 144.55C98.9325 144.82 96.3045 145.268 93.6787 145.793" stroke="#272727" stroke-linecap="round" stroke-linejoin="round"/>
<path d="M135.848 156.674C133.52 155.488 128.612 153.129 125.163 152.472" stroke="#272727" stroke-linecap="round" stroke-linejoin="round"/>
<path d="M240.075 127.951C240.075 127.951 238.307 131.931 233.667 131.931C229.028 131.931 227.25 127.951 227.25 127.951C227.25 127.951 214.2 157.8 227.025 173.499H240.284C253.103 157.8 240.075 127.951 240.075 127.951Z" fill="#838391"/>
<path d="M233.656 131.931C238.295 131.931 240.064 127.951 240.064 127.951H227.239C227.239 127.951 229.014 131.931 233.656 131.931Z" fill="#272727"/>
<path d="M245.642 154.525C238.428 154.653 229.892 157.26 223.322 166.455" stroke="#2A28C2" stroke-linecap="round" stroke-linejoin="round"/>
<path d="M222.167 147.22C227.009 146.038 236.178 144.913 245.066 147.029" stroke="#2A28C2" stroke-linecap="round" stroke-linejoin="round"/>
<path d="M245.025 162.187C241.799 162.226 235.834 165.884 236.491 173.256" stroke="#2A28C2" stroke-linecap="round" stroke-linejoin="round"/>
<path d="M232.843 130.607C232.708 127.399 231.856 114.651 226.793 107.173" stroke="#272727" stroke-miterlimit="10" stroke-linecap="round"/>
<path d="M231.788 120.805C232.436 119.707 229.005 116.483 224.126 113.603C219.246 110.723 214.766 109.278 214.119 110.375C213.472 111.473 216.902 114.697 221.782 117.577C226.661 120.457 231.141 121.902 231.788 120.805Z" fill="#272727"/>
<path d="M229.894 88.9917C230.844 88.4498 230.355 85.8025 228.803 83.0787C227.251 80.3549 225.222 78.5861 224.272 79.128C223.322 79.6698 223.811 82.3172 225.363 85.041C226.915 87.7648 228.944 89.5336 229.894 88.9917Z" fill="#272727"/>
<path d="M213.183 100.539C213.694 99.4027 216.097 99.3194 219.017 100.191C217.217 96.9693 216.666 93.9731 217.856 93.201C219.046 92.4289 221.562 94.1374 223.769 97.1021C224.158 94.0789 225.211 91.9246 226.469 91.9111C228.058 91.9111 229.358 95.4161 229.374 99.7516C229.384 100.991 229.274 102.229 229.045 103.448C228.353 103.13 227.592 102.991 226.832 103.043C226.072 103.095 225.337 103.335 224.693 103.744C224.05 104.152 223.519 104.714 223.148 105.38C222.777 106.046 222.578 106.794 222.57 107.556C221.405 107.27 220.269 106.877 219.177 106.381C215.21 104.605 212.533 101.991 213.183 100.539Z" fill="#F1AFAB"/>
<path d="M224.642 103.774C225.288 103.354 226.029 103.105 226.797 103.048C227.565 102.992 228.335 103.131 229.034 103.452C228.647 105.467 227.948 106.962 227.106 107.448C226.305 108.031 224.609 108.054 222.559 107.561C222.567 106.807 222.762 106.066 223.125 105.406C223.489 104.745 224.01 104.185 224.642 103.774Z" fill="#272727"/>
<path d="M234.531 130.413C235.152 126.87 238.385 109.499 243.56 99.6705" stroke="#272727" stroke-miterlimit="10" stroke-linecap="round"/>
<path d="M261.027 123.745C261.399 122.595 256.428 119.955 249.924 117.847C243.42 115.738 237.846 114.961 237.473 116.111C237.101 117.261 242.072 119.902 248.576 122.01C255.08 124.118 260.655 124.895 261.027 123.745Z" fill="#272727"/>
<path d="M242.586 84.4421C243.828 84.3296 245.079 86.3848 245.752 89.3585C247.669 86.207 250.013 84.2576 251.271 84.9171C252.529 85.5767 252.272 88.6066 250.772 91.9855C253.598 90.8442 255.998 90.7001 256.622 91.7851C257.405 93.1673 254.986 96.0239 251.222 98.1624C250.148 98.7781 249.018 99.2892 247.847 99.6886C247.782 98.93 247.53 98.1993 247.112 97.5628C246.695 96.9264 246.125 96.4042 245.455 96.0436C244.784 95.6831 244.035 95.4955 243.274 95.498C242.513 95.5004 241.764 95.6928 241.097 96.0577C240.775 94.901 240.56 93.7172 240.455 92.5212C240.039 88.2037 241.004 84.5862 242.586 84.4421Z" fill="#F1AFAB"/>
<path d="M245.392 96.0171C246.074 96.3743 246.655 96.8981 247.081 97.5399C247.507 98.1818 247.764 98.9209 247.829 99.6886C245.882 100.339 244.229 100.463 243.401 99.9678C242.501 99.5558 241.648 98.0859 241.072 96.0577C241.733 95.6948 242.473 95.5012 243.227 95.4941C243.98 95.487 244.724 95.6667 245.392 96.0171Z" fill="#272727"/>
<path d="M256.001 105.051V105.069C254.942 105.505 254.086 106.323 253.601 107.36C253.115 108.397 253.036 109.578 253.378 110.671C253.72 111.764 254.46 112.689 255.45 113.263C256.44 113.837 257.61 114.019 258.728 113.774V113.792C252.799 115.649 247.381 115.198 246.625 112.783C245.869 110.368 250.072 106.908 256.001 105.051Z" fill="#F1AFAB"/>
<path d="M254.59 112.621C255.11 112.413 255.532 112.015 255.771 111.509C256.011 111.002 256.05 110.424 255.881 109.889C255.713 109.355 255.348 108.904 254.861 108.627C254.374 108.35 253.801 108.267 253.255 108.396C253.405 107.658 253.734 106.968 254.214 106.388C254.693 105.807 255.308 105.354 256.005 105.069L258.732 113.773C258 113.935 257.239 113.915 256.517 113.714C255.795 113.513 255.133 113.138 254.59 112.621Z" fill="#3D3BFF"/>
<path d="M255.872 109.897C256.039 110.429 256 111.005 255.762 111.51C255.525 112.014 255.106 112.411 254.59 112.621C254.028 112.087 253.611 111.42 253.378 110.681C253.144 109.942 253.102 109.155 253.255 108.396C253.8 108.271 254.372 108.356 254.857 108.635C255.342 108.913 255.705 109.364 255.872 109.897Z" fill="#272727"/>
</svg>
