<svg width="360" height="270" viewBox="0 0 360 270" fill="none" xmlns="http://www.w3.org/2000/svg">
<path d="M86.5326 225.551C86.1515 225.551 85.776 225.459 85.4382 225.283C85.1004 225.106 84.8102 224.851 84.5923 224.538C84.3744 224.226 84.2354 223.865 84.1869 223.487C84.1385 223.109 84.1821 222.725 84.3141 222.367L90.1146 206.651H99.3396L88.5553 224.426C88.3427 224.771 88.045 225.056 87.6908 225.253C87.3367 225.45 86.9378 225.553 86.5326 225.551Z" fill="black"/>
<path d="M168.649 225.551C169.03 225.551 169.405 225.459 169.743 225.283C170.081 225.106 170.371 224.851 170.589 224.538C170.807 224.226 170.946 223.865 170.994 223.487C171.043 223.109 170.999 222.725 170.867 222.367L165.067 206.651H155.842L166.626 224.426C166.838 224.771 167.136 225.056 167.49 225.253C167.844 225.45 168.243 225.553 168.649 225.551Z" fill="black"/>
<path d="M177.766 159.953H77.4158V212.378H177.766V159.953Z" fill="#2A29C2"/>
<path d="M171.016 166.703H84.1658V205.628H171.016V166.703Z" fill="#B5B5C9"/>
<path d="M171.128 186.226H84.1658" stroke="#2A29C2" stroke-miterlimit="10"/>
<path d="M127.591 179.363C128.958 179.363 130.066 178.255 130.066 176.888C130.066 175.521 128.958 174.413 127.591 174.413C126.224 174.413 125.116 175.521 125.116 176.888C125.116 178.255 126.224 179.363 127.591 179.363Z" fill="#272727"/>
<path d="M127.591 198.263C128.958 198.263 130.066 197.155 130.066 195.788C130.066 194.421 128.958 193.313 127.591 193.313C126.224 193.313 125.116 194.421 125.116 195.788C125.116 197.155 126.224 198.263 127.591 198.263Z" fill="#272727"/>
<path d="M108.578 137.738C110.38 137.738 111.841 136.278 111.841 134.476C111.841 132.674 110.38 131.213 108.578 131.213C106.776 131.213 105.316 132.674 105.316 134.476C105.316 136.278 106.776 137.738 108.578 137.738Z" fill="#F1AFAB"/>
<path d="M125.453 137.738C127.255 137.738 128.716 136.278 128.716 134.476C128.716 132.674 127.255 131.213 125.453 131.213C123.651 131.213 122.191 132.674 122.191 134.476C122.191 136.278 123.651 137.738 125.453 137.738Z" fill="#F1AFAB"/>
<path d="M117.016 131.213C116.578 131.213 116.145 131.313 115.751 131.504C115.554 130.851 115.158 130.276 114.619 129.859C114.079 129.443 113.423 129.205 112.741 129.18C112.06 129.155 111.388 129.344 110.819 129.719C110.25 130.095 109.813 130.639 109.569 131.276C109.325 131.912 109.285 132.609 109.457 133.269C109.628 133.929 110.001 134.518 110.524 134.956C111.048 135.393 111.694 135.656 112.374 135.707C113.054 135.759 113.733 135.596 114.316 135.243C114.516 135.734 114.846 136.162 115.271 136.48C115.696 136.798 116.2 136.994 116.728 137.048C117.256 137.102 117.788 137.011 118.268 136.785C118.749 136.559 119.159 136.207 119.454 135.766C119.749 135.325 119.919 134.813 119.945 134.282C119.972 133.752 119.853 133.225 119.603 132.757C119.352 132.29 118.979 131.899 118.523 131.627C118.067 131.355 117.546 131.212 117.016 131.213Z" fill="#F1AFAB"/>
<path d="M122.85 131.222C122.626 130.675 122.257 130.199 121.783 129.846C121.31 129.492 120.749 129.274 120.161 129.214C119.572 129.154 118.979 129.255 118.444 129.507C117.909 129.758 117.452 130.15 117.123 130.641C116.793 131.132 116.603 131.703 116.573 132.293C116.543 132.884 116.674 133.471 116.951 133.993C117.229 134.515 117.644 134.951 118.15 135.256C118.657 135.561 119.237 135.722 119.828 135.722C119.942 135.722 120.055 135.716 120.168 135.704C120.434 136.128 120.804 136.476 121.243 136.716C121.682 136.956 122.175 137.079 122.675 137.074C123.175 137.069 123.666 136.936 124.1 136.687C124.534 136.438 124.897 136.082 125.154 135.653C125.411 135.224 125.554 134.737 125.569 134.237C125.584 133.737 125.47 133.241 125.239 132.798C125.008 132.354 124.667 131.977 124.249 131.703C123.83 131.429 123.349 131.266 122.85 131.231V131.222Z" fill="#F1AFAB"/>
<path d="M115.891 132.563C117.258 132.563 118.366 131.455 118.366 130.088C118.366 128.721 117.258 127.613 115.891 127.613C114.524 127.613 113.416 128.721 113.416 130.088C113.416 131.455 114.524 132.563 115.891 132.563Z" fill="#F1AFAB"/>
<path d="M124.103 126.713C125.035 126.713 125.791 125.958 125.791 125.026C125.791 124.094 125.035 123.338 124.103 123.338C123.171 123.338 122.416 124.094 122.416 125.026C122.416 125.958 123.171 126.713 124.103 126.713Z" fill="#F1AFAB"/>
<path d="M103.59 134.363L108.09 160.013H111.278L107.716 134.363H103.59Z" fill="#2A29C2"/>
<path d="M126.241 134.363L122.677 160.013H125.865L130.365 134.363H126.241Z" fill="#2A29C2"/>
<path d="M120.616 134.363L118.933 160.013H122.677L126.241 134.363H120.616Z" fill="#3D3BFF"/>
<path d="M107.716 134.363L111.278 160.013H115.022L113.341 134.363H107.716Z" fill="#3D3BFF"/>
<path d="M113.341 134.363L115.022 160.013H118.933L120.616 134.363H113.341Z" fill="#2A29C2"/>
<path d="M157.041 142.54H199.141V225.554H138.841V160.738C138.841 155.911 140.759 151.282 144.172 147.87C147.585 144.457 152.214 142.54 157.041 142.54Z" fill="#3D3BFF"/>
<path d="M203.616 97.5262H263.068C267.894 97.5268 272.523 99.4446 275.936 102.858C279.348 106.271 281.266 110.9 281.266 115.726V225.551H185.416V115.726C185.416 110.899 187.333 106.27 190.746 102.857C194.159 99.4438 198.789 97.5262 203.616 97.5262Z" fill="#3D3BFF"/>
<path d="M182.241 164.707H263.068C267.894 164.707 272.522 166.625 275.935 170.038C279.347 173.45 281.265 178.079 281.266 182.905V225.551H164.041V182.905C164.041 178.078 165.959 173.449 169.372 170.037C172.785 166.624 177.414 164.707 182.241 164.707Z" fill="#3D3BFF"/>
<path d="M220.628 184.91H171.547" stroke="#F1AFAB" stroke-miterlimit="10"/>
<path d="M164.041 182.905V225.551" stroke="#CA7358" stroke-miterlimit="10"/>
<path d="M281.266 142.272H243.209" stroke="#F1AFAB" stroke-miterlimit="10"/>
<path d="M178.216 45H77.8657V112.95H178.216V45Z" fill="#B5B5C9"/>
<path d="M171.466 51.75H84.6157V106.2H171.466V51.75Z" fill="#272727"/>
<path d="M147.692 85.5541C148.466 85.6283 149.238 85.7093 150.01 85.7926L151.715 81.5873L153.333 86.1818C154.165 86.2853 154.996 86.3941 155.824 86.508L152.984 78.4508L155.824 71.4375H153.418L153.394 71.4713L151.859 75.2603L150.509 71.4353H148.138L150.59 78.3923L147.692 85.5541Z" fill="#F1AFAB"/>
<path d="M145.894 85.3898V71.4398H143.521V85.2008C144.313 85.2608 145.104 85.3261 145.894 85.3966" fill="#F1AFAB"/>
<path d="M128.061 84.609C128.701 84.609 129.342 84.6128 129.982 84.6203V79.4925H132.833V77.31H129.982V73.6223H133.265V71.4375H127.591V84.6113H128.054" fill="#F1AFAB"/>
<path d="M120.69 84.7508C121.482 84.7238 122.265 84.699 123.066 84.681V73.6223H125.284V71.4375H118.471V73.6223H120.69V84.7508Z" fill="#F1AFAB"/>
<path d="M102.535 86.2133V77.9018L105.345 85.8758C106.209 85.7798 107.075 85.6883 107.944 85.6013V71.4263H105.667V80.0483L102.631 71.4375H100.258V86.5125H100.271C101.023 86.409 101.779 86.31 102.535 86.2133Z" fill="#F1AFAB"/>
<path d="M116.183 73.6223V71.4375H110.513V85.365C112.394 85.203 114.283 85.0665 116.179 84.9555V82.7708C115.082 82.8338 113.989 82.9088 112.898 82.9958V79.4948H115.749V77.31H112.898V73.6223H116.183Z" fill="#F1AFAB"/>
<path d="M137.972 82.6673V71.4375H135.587V84.7508C137.485 84.8213 139.374 84.9173 141.255 85.0388V82.854C140.163 82.782 139.069 82.7205 137.972 82.6695" fill="#F1AFAB"/>
<path d="M208.141 131.663C208.141 131.663 186.991 136.388 176.191 142.463C165.085 148.709 164.041 157.475 157.108 178.528C154.066 187.753 152.539 194.377 150.903 198.913L169.778 207.826C170.678 206.156 171.479 204.514 172.141 202.988C172.141 202.988 180.794 202.603 181.62 191.023C182.236 182.371 182.533 175.968 185.553 169.506L237.145 131.564L208.141 131.663Z" fill="#272727"/>
<path d="M143.161 207.011C143.066 207.027 142.972 207.045 142.875 207.058C136.19 208.073 133.4 209.374 132.3 212.404L160.2 225.409C160.518 225.558 160.879 225.591 161.219 225.504C161.559 225.416 161.858 225.212 162.065 224.928C162.183 224.766 162.268 224.583 162.314 224.388C162.361 224.193 162.368 223.991 162.336 223.794C162.303 223.596 162.232 223.407 162.126 223.237C162.02 223.067 161.882 222.92 161.719 222.804L143.341 214.463C143.774 211.992 143.713 209.459 143.161 207.011Z" fill="#272727"/>
<path d="M169.778 207.826L150.903 198.913C149.938 201.591 148.934 203.544 147.559 204.883C146.416 206.008 145.012 206.683 143.161 207.011C143.713 209.459 143.774 211.992 143.341 214.463L161.728 222.804C161.657 222.753 161.581 222.709 161.503 222.671L160.828 222.349C161.921 220.774 163.638 218.205 165.474 215.235C166.932 212.906 168.442 210.337 169.778 207.826Z" fill="#EAA58B"/>
<path d="M171.985 203.308L152.341 194.101" stroke="#F5EBDD" stroke-linecap="round" stroke-linejoin="round"/>
<path d="M247.853 140.755L247.066 132.084H231.541C231.541 132.084 205.441 138.33 194.346 143.651C183.303 148.943 184.628 161.235 186.709 182.752C187.771 193.72 189.097 201.253 189.027 206.588H209.502C209.614 204.857 209.689 203.031 209.727 201.109C209.727 201.109 217.714 197.327 213.552 185.065C210.764 176.852 208.357 171.414 208.357 164.281H226.366C229.363 164.282 232.329 163.657 235.072 162.448C237.815 161.239 240.276 159.471 242.298 157.257C244.319 155.044 245.858 152.433 246.814 149.592C247.771 146.75 248.124 143.741 247.853 140.755Z" fill="#272727"/>
<path d="M184.165 216.601C178.963 220.138 177.127 222.451 177.415 225.544L208.219 225.504C208.549 225.49 208.861 225.349 209.09 225.111C209.318 224.873 209.446 224.555 209.446 224.225C209.446 223.895 209.318 223.577 209.09 223.339C208.861 223.1 208.549 222.96 208.219 222.946H187.666C187.666 222.946 186.541 219.148 184.165 216.601Z" fill="#272727"/>
<path d="M189.027 206.588C188.989 209.626 188.498 211.952 187.247 213.788C186.572 214.761 185.713 215.592 184.718 216.234L184.165 216.601C186.543 219.141 187.666 222.946 187.666 222.946H207.124C207.862 219.928 208.427 216.871 208.816 213.788C209.095 211.637 209.338 209.228 209.509 206.588H189.027Z" fill="#EAA58B"/>
<path d="M208.591 138.188C203.618 139.777 197.75 141.721 193.966 143.588C185.323 147.847 184.221 156.152 185.159 169.981" stroke="white" stroke-linecap="round" stroke-linejoin="round"/>
<path d="M208.141 164.815H202.558" stroke="white" stroke-linecap="round" stroke-linejoin="round"/>
<path d="M209.716 201.49H188.791" stroke="#F5EBDD" stroke-miterlimit="10" stroke-linecap="round"/>
<path d="M239.166 142.54H281.266V225.554H220.966V160.738C220.966 155.911 222.884 151.282 226.297 147.87C229.71 144.457 234.339 142.54 239.166 142.54Z" fill="#3D3BFF"/>
<path d="M220.516 164.291V225.284" stroke="#F1AFAB" stroke-miterlimit="10"/>
<path d="M62.2281 192.863C57.0531 192.863 52.8321 189.76 52.6724 185.888V225.488H71.7974V185.888C71.6241 189.76 67.4099 192.863 62.2281 192.863Z" fill="#3D3BFF"/>
<path d="M53.0278 216.526C59.3053 215.851 66.7821 211.464 65.3781 201.076C64.2531 192.751 56.0406 195.113 60.7656 202.988C63.5421 207.616 68.1073 210.769 71.3991 212.58" stroke="white" stroke-miterlimit="10" stroke-linecap="round"/>
<path d="M52.9717 207.167C56.7134 209.727 63.3419 215.608 65.8687 225.088" stroke="white" stroke-miterlimit="10" stroke-linecap="round"/>
<path d="M52.9492 219.834C55.404 220.561 58.5517 222.127 60.921 225.115" stroke="white" stroke-miterlimit="10" stroke-linecap="round"/>
<path d="M59.8026 187.949C58.2097 190.724 55.8346 192.967 52.9739 194.4" stroke="white" stroke-miterlimit="10" stroke-linecap="round"/>
<path d="M62.2283 192.863C67.4033 192.863 71.6243 189.76 71.784 185.888H52.6658C52.8323 189.76 57.0465 192.863 62.2283 192.863Z" fill="#272727"/>
<path d="M56.8281 151.126L62.0031 190.051" stroke="#272727" stroke-miterlimit="10" stroke-linecap="round"/>
<path d="M55.1721 166.813L61.2246 189.724" stroke="#272727" stroke-miterlimit="10" stroke-linecap="round"/>
<path d="M73.9473 175.954C78.2572 174.111 81.3383 171.652 80.8292 170.462C80.3202 169.271 76.4137 169.8 72.1039 171.643C67.7941 173.485 64.713 175.944 65.222 177.135C65.7311 178.326 69.6375 177.797 73.9473 175.954Z" fill="#272727"/>
<path d="M58.7803 180.862C59.2192 179.698 55.3248 177.152 50.0821 175.175C44.8394 173.198 40.2335 172.539 39.7946 173.703C39.3558 174.867 43.2501 177.413 48.4928 179.39C53.7356 181.367 58.3414 182.026 58.7803 180.862Z" fill="#272727"/>
<path d="M65.9375 168.458C68.9717 166.173 70.9617 163.696 70.3823 162.927C69.8028 162.158 66.8734 163.387 63.8392 165.673C60.8049 167.958 58.8149 170.435 59.3944 171.204C59.9738 171.973 62.9033 170.744 65.9375 168.458Z" fill="#272727"/>
<path d="M68.7531 155.851L62.9031 191.851" stroke="#272727" stroke-miterlimit="10" stroke-linecap="round"/>
<path d="M59.1118 159.581C58.5713 158.685 57.8232 157.932 56.9305 157.386C56.0379 156.84 55.027 156.516 53.983 156.443C52.9391 156.369 51.8928 156.548 50.9324 156.963C49.972 157.379 49.1257 158.02 48.4649 158.831C47.8041 159.643 47.3481 160.601 47.1355 161.626C46.923 162.651 46.96 163.712 47.2435 164.719C47.5269 165.726 48.0486 166.651 48.7643 167.414C49.4801 168.178 50.369 168.758 51.3561 169.106C51.6861 166.972 52.5787 164.965 53.9418 163.291C55.305 161.617 57.0895 160.337 59.1118 159.581Z" fill="#2A29C2"/>
<path d="M56.1284 163.627C54.9398 160.917 52.8074 158.731 50.1277 157.475" stroke="white" stroke-miterlimit="10" stroke-linecap="round"/>
<path d="M55.1407 164.61C53.0795 162.466 50.3009 161.156 47.3354 160.931" stroke="white" stroke-miterlimit="10" stroke-linecap="round"/>
<path d="M51.3562 169.106C52.6238 169.552 53.9984 169.597 55.2921 169.232C56.5859 168.868 57.7356 168.114 58.5843 167.072C59.4329 166.029 59.9391 164.751 60.0335 163.41C60.128 162.069 59.8061 160.732 59.112 159.581C57.0896 160.337 55.3051 161.617 53.9419 163.291C52.5788 164.965 51.6863 166.972 51.3562 169.106Z" fill="#F1AFAB"/>
<path d="M49.4752 146.896C49.4525 145.85 49.6818 144.813 50.1436 143.875C50.6054 142.936 51.2862 142.122 52.1286 141.501C52.971 140.88 53.9503 140.472 54.9839 140.309C56.0175 140.146 57.0751 140.234 58.0674 140.566C59.0597 140.898 59.9577 141.463 60.6857 142.215C61.4136 142.967 61.9501 143.882 62.25 144.885C62.5498 145.887 62.6042 146.947 62.4085 147.975C62.2128 149.003 61.7729 149.968 61.1257 150.79C59.7049 149.165 57.8766 147.947 55.8289 147.262C53.7812 146.578 51.588 146.451 49.4752 146.896Z" fill="#2A29C2"/>
<path d="M54.1619 148.716C53.7145 145.79 54.3463 142.802 55.9394 140.308" stroke="white" stroke-miterlimit="10" stroke-linecap="round"/>
<path d="M55.5186 149.018C56.114 146.104 57.7606 143.512 60.1446 141.734" stroke="white" stroke-miterlimit="10" stroke-linecap="round"/>
<path d="M61.1256 150.791C60.294 151.847 59.1565 152.621 57.8684 153.006C56.5804 153.391 55.2048 153.369 53.9298 152.943C52.6548 152.517 51.5425 151.707 50.7451 150.625C49.9478 149.542 49.5042 148.24 49.4751 146.896C51.588 146.451 53.7811 146.578 55.8288 147.262C57.8765 147.947 59.7049 149.165 61.1256 150.791Z" fill="#F1AFAB"/>
<path d="M65.1396 147.352C65.7829 146.527 66.6154 145.868 67.5668 145.432C68.5182 144.995 69.5606 144.794 70.606 144.846C71.6514 144.897 72.6691 145.199 73.5733 145.726C74.4775 146.253 75.2417 146.99 75.8012 147.875C76.3607 148.759 76.6993 149.765 76.7882 150.808C76.8772 151.851 76.7139 152.9 76.3123 153.867C75.9107 154.833 75.2824 155.689 74.4806 156.362C73.6787 157.034 72.7268 157.504 71.7051 157.732C71.6314 155.574 70.9843 153.476 69.8304 151.651C68.6764 149.827 67.0573 148.343 65.1396 147.352Z" fill="#2A29C2"/>
<path d="M67.6213 151.724C69.1221 149.172 71.4996 147.253 74.3106 146.324" stroke="white" stroke-miterlimit="10" stroke-linecap="round"/>
<path d="M68.481 152.818C70.7829 150.935 73.6976 149.966 76.6687 150.095" stroke="white" stroke-miterlimit="10" stroke-linecap="round"/>
<path d="M71.705 157.732C70.3935 158.024 69.0237 157.904 67.7829 157.388C66.5421 156.873 65.4907 155.987 64.7723 154.851C64.054 153.715 63.7038 152.386 63.7695 151.044C63.8353 149.702 64.3137 148.412 65.1395 147.353C67.0572 148.343 68.6763 149.827 69.8303 151.652C70.9842 153.476 71.6313 155.574 71.705 157.732Z" fill="#F1AFAB"/>
<path d="M320.611 224.822C320.591 224.877 320.565 224.93 320.535 224.98C320.566 224.93 320.591 224.877 320.611 224.822Z" fill="#CA7358"/>
<path d="M309.888 219.865L303.991 225.49H319.066C319.86 225.49 320.323 225.306 320.53 224.989C319.369 225.205 312.637 221.44 309.888 219.865Z" fill="#F1AFAB"/>
<path d="M320.611 224.822C321.363 222.705 313.666 216.272 313.666 216.272L309.888 219.872C312.637 221.447 319.369 225.211 320.53 224.993C320.563 224.939 320.59 224.882 320.611 224.822Z" fill="#FFDEDC"/>
<path d="M319.516 204.563C319.291 205.688 308.941 207.488 308.941 207.488L308.293 203.195L308.041 203.213L309.719 216.038C309.719 216.038 320.191 206.813 319.516 204.563Z" fill="#F1AFAB"/>
<path d="M319.516 204.563C318.931 202.615 309.922 203.094 308.293 203.195L308.941 207.488C308.941 207.488 319.291 205.688 319.516 204.563Z" fill="#FFDEDC"/>
<path d="M307.071 204.437L307.46 196.335" stroke="#272727" stroke-linecap="round" stroke-linejoin="round"/>
<path d="M305.489 203.551L303.385 193.217" stroke="#272727" stroke-linecap="round" stroke-linejoin="round"/>
<path d="M271.141 225.551L260.615 211.527L265.516 206.352C265.066 204.777 263.041 197.802 260.341 195.552C257.641 193.302 255.166 193.302 253.816 193.752L253.775 193.765C253.442 193.889 253.149 194.101 252.927 194.378C252.705 194.656 252.564 194.989 252.518 195.341C252.471 195.693 252.522 196.051 252.664 196.377C252.807 196.702 253.035 196.983 253.325 197.188L255.841 199.388C255.841 199.388 250.216 203.663 250.216 208.388C250.216 211.682 251.993 213.37 253.755 214.238L249.091 220.763C249.091 220.763 244.366 221.438 235.141 218.738C232.33 217.915 229.291 216.488 226.451 215.179C226.451 218.243 225.043 220.698 222.957 222.505C227.74 224.39 233.829 225.551 238.554 225.551H271.141Z" fill="#F1B0AB"/>
<path d="M242.791 220.651C243.574 222.161 244.534 223.709 246.229 225.079" stroke="#272727" stroke-miterlimit="10" stroke-linecap="round"/>
<path d="M264.841 205.576L263.041 206.926" stroke="#272727" stroke-miterlimit="10" stroke-linecap="round"/>
<path d="M226.451 215.179C221.726 213.012 217.564 211.232 216.016 213.338C213.372 216.938 217.224 220.241 222.957 222.505C225.043 220.698 226.462 218.243 226.451 215.179Z" fill="#FFDEDC"/>
<path d="M312.316 210.631C312.316 209.677 313.517 208.426 314.462 208.042C312.701 203.213 305.642 199.015 298.366 202.763C298.366 202.763 297.466 198.263 294.991 196.463C292.675 194.778 290.266 194.611 288.466 195.286L288.412 195.307C288.087 195.437 287.801 195.647 287.58 195.918C287.359 196.189 287.21 196.512 287.148 196.856C287.086 197.2 287.112 197.555 287.225 197.886C287.337 198.217 287.532 198.514 287.791 198.749L290.941 201.638L289.366 204.736C287.761 203.282 285.876 202.171 283.826 201.472C283.649 209.889 272.597 213.597 267.091 211.763C265.156 209.063 263.556 207.677 263.146 207.346L263.041 207.436C263.041 207.436 258.316 204.338 254.041 207.488C254.041 207.488 251.791 202.313 249.091 200.236C246.807 198.479 242.341 198.436 241.216 199.561L241.182 199.595C240.922 199.861 240.725 200.181 240.606 200.533C240.487 200.885 240.449 201.259 240.494 201.628C240.539 201.996 240.667 202.35 240.867 202.663C241.068 202.975 241.336 203.239 241.652 203.434L244.816 205.411C244.816 205.411 236.716 217.561 247.516 225.551H304.891C313.504 225.551 315.524 218.641 315.331 213.1C314.312 212.834 312.316 212.121 312.316 210.631Z" fill="#F1AFAB"/>
<path d="M267.091 211.763C272.596 213.597 283.648 209.889 283.826 201.472C281.564 200.673 279.148 200.404 276.766 200.687C270.241 201.454 264.008 206.609 263.146 207.347C263.556 207.677 265.156 209.052 267.091 211.763Z" fill="#FFDEDC"/>
<path d="M312.316 210.631C312.316 212.121 314.311 212.834 315.331 213.106C315.287 211.492 315.03 209.89 314.566 208.343C314.534 208.244 314.496 208.147 314.462 208.048C313.517 208.426 312.316 209.677 312.316 210.631Z" fill="#272727"/>
<path d="M310.509 211.169L313.708 210.697" stroke="#272727" stroke-linecap="round" stroke-linejoin="round"/>
<path d="M298.937 202.876C299.853 206.566 300.98 211.723 301.412 215.026" stroke="#272727" stroke-linecap="round" stroke-linejoin="round"/>
<path d="M289.028 197.476L288.191 198.729" stroke="#272727" stroke-linecap="round" stroke-linejoin="round"/>
<path d="M290.603 198.826L289.721 200.147" stroke="#272727" stroke-linecap="round" stroke-linejoin="round"/>
<path d="M242.228 201.526L241.382 202.795" stroke="#272727" stroke-linecap="round" stroke-linejoin="round"/>
<path d="M244.028 202.651L243.115 204.019" stroke="#272727" stroke-linecap="round" stroke-linejoin="round"/>
<path d="M289.024 204.597C284.931 212.076 281.551 220.007 287.95 225.254" stroke="#272727" stroke-linecap="round" stroke-linejoin="round"/>
<path d="M269.341 217.051C268.441 213.001 265.671 207.947 262.141 206.476C259.441 205.351 256.741 205.576 254.266 206.926C254.266 206.926 253.197 204.633 252.337 203.377" stroke="#272727" stroke-miterlimit="10" stroke-linecap="round"/>
<path d="M308.799 208.552C308.799 208.552 309.474 210.658 310.509 211.169C310.509 211.169 309.775 212.22 309.654 214.254" stroke="#272727" stroke-linecap="round" stroke-linejoin="round"/>
<path d="M280.591 200.738C280.591 200.738 278.791 203.888 275.866 203.663C272.941 203.438 273.166 199.163 276.541 196.688C277.964 195.851 279.651 195.579 281.266 195.928C284.141 196.556 285.824 202.347 285.824 202.347C285.824 202.347 282.841 200.963 280.591 200.738Z" fill="#F1AFAB"/>
<path d="M306.016 182.842L309.719 180.578L308.072 186.338L312.428 183.751" stroke="#F1AFAB" stroke-linecap="round" stroke-linejoin="round"/>
<path d="M314.107 173.498L318.006 173.187L314.334 177.149L318.728 176.843" stroke="#F1AFAB" stroke-linecap="round" stroke-linejoin="round"/>
<path d="M275.517 201.508L275.512 203.213" stroke="#272727" stroke-linecap="round" stroke-linejoin="round"/>
<path d="M277.576 201.312L277.571 203.002" stroke="#272727" stroke-linecap="round" stroke-linejoin="round"/>
<path d="M254.068 195.966L253.253 196.837" stroke="#272727" stroke-linecap="round" stroke-linejoin="round"/>
<path d="M255.661 197.145L254.691 198.182" stroke="#272727" stroke-linecap="round" stroke-linejoin="round"/>
<path d="M173.558 110.837L166.291 105.822L165.978 105.597C164.054 104.697 158.832 104.956 159.095 102.854C159.152 102.404 159.68 102.065 160.515 101.831L149.954 94.5608C149.563 94.2928 149.082 94.1898 148.616 94.274C148.149 94.3583 147.735 94.623 147.463 95.0108L146.338 96.6285C146.9 97.1183 147.263 97.7981 147.356 98.5382C147.449 99.2783 147.267 100.027 146.843 100.641C146.42 101.255 145.785 101.692 145.06 101.868C144.335 102.043 143.571 101.946 142.913 101.594L141.626 103.46C141.358 103.85 141.254 104.332 141.338 104.799C141.423 105.265 141.688 105.68 142.076 105.953L165.679 122.229C166.07 122.498 166.551 122.601 167.018 122.517C167.485 122.433 167.899 122.167 168.172 121.779L170.228 118.798L174.017 113.326C174.284 112.934 174.385 112.453 174.299 111.987C174.213 111.521 173.947 111.108 173.558 110.837ZM159.878 115.013C158.921 115.013 157.986 114.73 157.191 114.198C156.395 113.666 155.775 112.911 155.409 112.027C155.043 111.143 154.947 110.17 155.134 109.232C155.32 108.294 155.781 107.432 156.458 106.755C157.134 106.079 157.996 105.618 158.934 105.431C159.873 105.245 160.846 105.34 161.729 105.706C162.613 106.073 163.369 106.693 163.9 107.488C164.432 108.284 164.716 109.219 164.716 110.176C164.715 111.459 164.205 112.689 163.298 113.596C162.391 114.503 161.161 115.013 159.878 115.013ZM170.566 114.197L167.753 118.247C167.63 118.422 167.443 118.541 167.232 118.579C167.022 118.617 166.805 118.57 166.628 118.449C166.452 118.327 166.332 118.14 166.293 117.929C166.255 117.718 166.302 117.5 166.424 117.324L169.238 113.274C169.299 113.187 169.376 113.112 169.466 113.054C169.555 112.997 169.655 112.957 169.76 112.938C169.865 112.92 169.973 112.922 170.077 112.944C170.181 112.967 170.279 113.01 170.367 113.07C170.454 113.131 170.529 113.208 170.586 113.298C170.644 113.388 170.683 113.488 170.702 113.592C170.721 113.697 170.719 113.805 170.696 113.909C170.674 114.013 170.631 114.111 170.57 114.199L170.566 114.197Z" fill="#3D3BFF"/>
<path d="M159.878 115.013C162.55 115.013 164.716 112.847 164.716 110.176C164.716 107.504 162.55 105.338 159.878 105.338C157.206 105.338 155.041 107.504 155.041 110.176C155.041 112.847 157.206 115.013 159.878 115.013Z" fill="white"/>
<path d="M147.391 98.9257C147.391 98.4917 147.298 98.0628 147.118 97.668C146.937 97.2732 146.675 96.9217 146.347 96.6375L142.922 101.603C143.362 101.84 143.854 101.964 144.353 101.963C145.159 101.963 145.931 101.643 146.501 101.074C147.071 100.504 147.391 99.7313 147.391 98.9257Z" fill="white"/>
<path d="M170.356 113.067C170.18 112.946 169.962 112.9 169.752 112.938C169.541 112.976 169.354 113.096 169.231 113.272L166.417 117.322C166.295 117.498 166.248 117.716 166.287 117.927C166.325 118.137 166.445 118.325 166.621 118.447C166.798 118.568 167.015 118.615 167.225 118.577C167.436 118.539 167.623 118.419 167.746 118.244L170.559 114.194C170.681 114.018 170.729 113.8 170.691 113.589C170.653 113.377 170.533 113.19 170.356 113.067Z" fill="#272727"/>
<path d="M162.466 119.963C162.466 119.963 160.441 122.213 158.416 120.188C158.416 120.188 155.941 120.863 155.041 118.838C155.041 118.838 153.016 119.738 152.116 117.713C152.057 117.583 150.946 118.199 149.866 116.813C148.291 114.788 147.391 109.163 148.741 108.938C151.058 108.551 152.039 112.898 152.08 112.763C152.586 111.051 153.463 109.613 154.366 109.613C155.941 109.613 156.166 111.188 156.166 111.188C156.166 111.188 157.117 109.917 158.416 110.288C159.991 110.738 159.541 112.763 159.541 112.763C159.541 112.763 160.985 111.805 161.791 113.213C162.691 114.788 160.891 116.813 161.116 119.063L162.466 119.963Z" fill="#F1AFAB"/>
<path d="M159.41 112.412C158.449 114.091 156.935 117.344 157.889 119.86" stroke="white" stroke-linecap="round" stroke-linejoin="round"/>
<path d="M155.979 110.851C155.369 112.291 154.091 115.783 154.642 118.597" stroke="white" stroke-linecap="round" stroke-linejoin="round"/>
<path d="M151.83 112.201C151.533 113.641 151.315 115.56 151.697 117.313" stroke="white" stroke-linecap="round" stroke-linejoin="round"/>
<path d="M236.716 78.7883C239.416 77.8883 242.566 74.0633 240.316 70.9133C237.334 66.7373 232.216 72.2633 232.216 72.2633C230.047 70.6818 228.402 68.4877 227.491 65.9633C226.816 66.1883 224.791 66.4133 223.216 65.9633C223.216 65.9633 222.541 67.7633 222.091 70.9133C222.03 71.3453 221.958 71.7615 221.879 72.162C221.879 72.162 219.841 72.0383 219.616 72.9383C219.337 74.0498 221.121 75.2445 221.121 75.2445C220.423 77.7578 219.843 79.6905 220.741 81.9383C221.533 83.9205 223.216 86.2133 228.616 85.5383L228.307 87.9008H244.411C244.501 86.958 244.606 85.8353 244.719 84.6225C242.892 84.0083 238.32 82.1768 236.716 78.7883Z" fill="#F1AFAB"/>
<path d="M238.516 58.5382C231.991 55.6132 225.916 60.1132 225.916 60.1132C225.916 60.1132 220.367 58.5157 220.066 62.1382C219.841 64.8382 223.216 65.9632 223.216 65.9632C224.791 66.4132 226.816 66.1882 227.491 65.9632C228.402 68.4877 230.047 70.6818 232.216 72.2632C232.216 72.2632 237.334 66.7372 240.316 70.9132C242.566 74.0632 239.416 77.8882 236.716 78.7882C238.32 82.1767 242.892 84.0082 244.719 84.6225C245.115 80.3317 245.59 74.898 245.716 72.2632C245.92 67.968 245.491 61.668 238.516 58.5382Z" fill="#3D3BFF"/>
<path d="M193.741 108.038C193.741 108.038 177.991 103.538 171.916 102.188C168.221 101.367 162.997 101.144 160.51 101.84C159.676 102.065 159.147 102.411 159.091 102.863C158.827 104.965 164.041 104.704 165.973 105.606L173.558 110.837C173.947 111.11 174.212 111.524 174.296 111.991C174.38 112.458 174.277 112.939 174.008 113.33L170.237 118.798C176.041 121.805 182.316 123.797 188.791 124.688C194.76 125.514 202.005 122.193 207.191 119.138L198.49 104.776C195.694 106.684 193.741 108.038 193.741 108.038Z" fill="#F1AFAB"/>
<path d="M244.411 87.9008H228.307L227.941 90.7133C227.941 90.7133 220.032 90.5468 214.441 94.0883C210.215 96.7635 203.173 101.554 198.49 104.765L207.191 119.138C209.55 117.755 211.821 116.227 213.991 114.563L208.141 131.663H247.066L244.141 90.7133C244.141 90.7133 244.251 89.5995 244.411 87.9008Z" fill="#272727"/>
<path d="M227.491 91.2758L227.153 93.9758" stroke="white" stroke-linecap="round" stroke-linejoin="round"/>
<path d="M216.803 105.226L213.766 114.226" stroke="white" stroke-linecap="round" stroke-linejoin="round"/>
<path d="M222.957 77.3258C223.328 77.5508 224.723 77.7376 225.288 76.6643" stroke="white" stroke-linecap="round" stroke-linejoin="round"/>
<path d="M225.691 72.0382C226.063 72.0382 226.366 71.736 226.366 71.3632C226.366 70.9904 226.063 70.6882 225.691 70.6882C225.318 70.6882 225.016 70.9904 225.016 71.3632C225.016 71.736 225.318 72.0382 225.691 72.0382Z" fill="black"/>
<path d="M237.391 73.6133L234.916 75.1883" stroke="white" stroke-linecap="round" stroke-linejoin="round"/>
<path d="M231.284 88.3462L230.922 91.2644" stroke="white" stroke-linecap="round" stroke-linejoin="round"/>
<path d="M234.657 88.3462L234.297 91.2644" stroke="white" stroke-linecap="round" stroke-linejoin="round"/>
<path d="M238.03 88.3462L237.67 91.2644" stroke="white" stroke-linecap="round" stroke-linejoin="round"/>
<path d="M228.78 85.9343C229.853 85.7453 231.347 85.3515 232.553 84.5258" stroke="white" stroke-linecap="round" stroke-linejoin="round"/>
<path d="M245.54 119.738L245.941 128.063C245.941 128.063 226.975 133.378 220.498 138.238C217.573 140.432 213.973 144.558 212.641 146.288C211.309 148.019 205.828 155.963 208.141 156.188C210.454 156.413 214.02 151.425 214.02 151.425C214.02 151.425 211.741 157.538 212.416 159.563C213.091 161.588 215.183 160.191 215.183 160.191C217.141 162.488 218.878 159.953 218.878 159.953C222.316 162.488 225.812 150.03 225.812 150.03C227.709 149.102 229.402 147.807 230.794 146.219C230.794 146.219 250.058 146.981 257.641 140.663C261.436 137.5 263.311 129.071 263.385 119.738H245.54Z" fill="#F1AFAB"/>
<path d="M260.341 98.3633C258.673 93.2805 253.141 90.7133 249.766 90.7133H244.141L245.54 119.738H263.385C263.441 112.475 262.408 104.666 260.341 98.3633Z" fill="#272727"/>
<path d="M246.037 119.536L245.378 105.676" stroke="white" stroke-linecap="round" stroke-linejoin="round"/>
<path d="M246.298 127.489L249.653 126.601" stroke="white" stroke-linecap="round" stroke-linejoin="round"/>
<path d="M213.491 151.814C214.198 149.924 215.275 147.123 216.128 145.276" stroke="white" stroke-linecap="round" stroke-linejoin="round"/>
<path d="M219.278 146.851C216.866 152.046 215.453 157.876 215.003 159.982" stroke="white" stroke-linecap="round" stroke-linejoin="round"/>
<path d="M222.653 148.651C221.11 152.204 219.685 156.94 218.911 159.698" stroke="white" stroke-linecap="round" stroke-linejoin="round"/>
</svg>
